<svg width="64" height="64" xmlns="http://www.w3.org/2000/svg" xmlns:xlink="http://www.w3.org/1999/xlink" xml:space="preserve" overflow="hidden"><g><g><g><g><g><path d="M30.7125 18.6565C32.1622 18.6565 33.3375 17.4813 33.3375 16.0315 33.3375 14.5818 32.1622 13.4065 30.7125 13.4065 29.2628 13.4065 28.0875 14.5818 28.0875 16.0315 28.0961 17.4777 29.2663 18.6479 30.7125 18.6565ZM30.7125 14.719C31.4374 14.719 32.025 15.3066 32.025 16.0315 32.025 16.7564 31.4374 17.344 30.7125 17.344 29.9876 17.344 29.4 16.7564 29.4 16.0315 29.4092 15.3105 29.9915 14.7282 30.7125 14.719Z" fill="#37698B" fill-rule="nonzero" fill-opacity="1"/><path d="M22.8375 31.3438C24.2872 31.3438 25.4625 30.1685 25.4625 28.7188 25.4625 27.2691 24.2872 26.0938 22.8375 26.0938 21.3878 26.0938 20.2125 27.2691 20.2125 28.7188 20.2125 30.1685 21.3878 31.3438 22.8375 31.3438ZM22.8375 27.4063C23.5624 27.4063 24.15 27.9939 24.15 28.7188 24.15 29.4437 23.5624 30.0313 22.8375 30.0313 22.1126 30.0313 21.525 29.4437 21.525 28.7188 21.525 27.9939 22.1126 27.4063 22.8375 27.4063Z" fill="#37698B" fill-rule="nonzero" fill-opacity="1"/><path d="M17.5284 31.5938 16.966 33.2187 18.2129 34.4689 19.8378 33.9688C20.2683 34.2202 20.7323 34.4096 21.2159 34.5312L21.9647 36.0938 23.7143 36.0938 24.402 34.5936C24.8856 34.472 25.3495 34.2826 25.7801 34.0312L27.4043 34.5936 28.6512 33.3467 28.1531 31.7185C28.4041 31.2889 28.5934 30.8261 28.7155 30.3437L30.2774 29.5936 30.3397 27.7187 28.7759 26.9719C28.654 26.4884 28.4646 26.0244 28.2135 25.5938L28.7759 23.9689 27.529 22.7187 25.9042 23.2811C25.4744 23.0302 25.0117 22.8409 24.5293 22.7187L23.7799 21.1562 21.9647 21.1562 21.2153 22.7187C20.7318 22.8406 20.2678 23.03 19.8371 23.2811L18.2122 22.7187 16.9654 23.9689 17.5284 25.5938C17.2773 26.0233 17.088 26.4862 16.966 26.9686L15.4042 27.7187 15.4042 29.4689 16.966 30.219C17.088 30.7014 17.2773 31.1643 17.5284 31.5938ZM16.7167 28.5469 17.5343 28.1531 18.0902 27.8867 18.2392 27.2882C18.3318 26.9221 18.4763 26.5712 18.6683 26.2461L18.9637 25.7289 18.7668 25.1659 18.4728 24.3173 18.5607 24.2294 19.4093 24.5228 19.9723 24.7196 20.4894 24.4243C20.8146 24.2324 21.1656 24.0879 21.5316 23.9951L22.1294 23.8455 22.3965 23.2897 22.7903 22.472 22.9504 22.472 23.3441 23.2897 23.6112 23.8455 24.2091 23.9951C24.5751 24.0879 24.926 24.2324 25.2512 24.4243L25.7683 24.7196 26.3314 24.5228 27.1799 24.2294 27.2672 24.3173 26.9719 25.1646 26.775 25.7276 27.0703 26.2448C27.2619 26.5701 27.4064 26.9209 27.4995 27.2869L27.6485 27.8854 28.2043 28.1518 28.9918 28.5311 28.9846 28.7549 28.1393 29.1605 27.5835 29.4276 27.4339 30.0254C27.3416 30.3915 27.1973 30.7424 27.0053 31.0675L26.7232 31.561 26.8905 32.1044 27.1582 32.9746 27.048 33.0848 26.2001 32.7908 25.6371 32.594 25.1193 32.8899C24.7942 33.0815 24.4435 33.2257 24.0778 33.3185L23.4655 33.4714 23.203 34.0449 22.8723 34.7812 22.7909 34.7812 22.3972 33.9636 22.1301 33.4077 21.5322 33.2581C21.1662 33.1654 20.8152 33.0209 20.4901 32.8289L19.9966 32.5467 19.4532 32.7141 18.5837 32.9818 18.4734 32.8716 18.7688 32.025 18.9656 31.4619 18.6703 30.9448C18.4784 30.6196 18.3339 30.2687 18.2411 29.9027L18.0922 29.3042 17.5363 29.0378 16.7186 28.644Z" fill="#37698B" fill-rule="nonzero" fill-opacity="1"/><path d="M25.3391 18.9689 24.7767 20.5938 26.0236 21.8439 27.6485 21.2815C28.0782 21.5324 28.541 21.7217 29.0233 21.8439L29.7728 23.4065 31.5223 23.4065 32.2724 21.9063C32.7559 21.7844 33.2198 21.595 33.6505 21.3439L35.2747 21.9063 36.5249 20.6561 35.9625 19.0312C36.2331 18.604 36.4434 18.1413 36.5872 17.6564L38.1491 16.9063 38.1491 15.0314 36.5872 14.2813C36.4651 13.7989 36.2759 13.3361 36.0248 12.9065L36.5872 11.2809 35.3404 10.0341 33.7155 10.5965C33.2859 10.3453 32.8231 10.156 32.3407 10.0341L31.5879 8.53125 29.8384 8.53125 29.0883 10.0938C28.6047 10.2154 28.1407 10.4048 27.7102 10.6562L26.0859 10.0938 24.8391 11.3439 25.3391 12.9688C25.0882 13.3985 24.8989 13.8613 24.7767 14.3437L23.2148 15.0938 23.2148 16.844 24.7767 17.5941C24.899 18.0763 25.0884 18.5391 25.3391 18.9689ZM24.5273 15.9193 25.345 15.5256 25.9009 15.2591 26.0498 14.6606C26.1428 14.2946 26.2873 13.9438 26.479 13.6185L26.7606 13.125 26.5939 12.5816 26.3261 11.7114 26.4364 11.6018 27.2843 11.8952 27.8473 12.0921 28.3651 11.7968C28.69 11.6047 29.0407 11.4602 29.4066 11.3676L30.0051 11.2179 30.2715 10.6621 30.6653 9.84441 30.7781 9.84441 31.1653 10.6188 31.4344 11.1562 32.0197 11.3026C32.3857 11.3953 32.7366 11.5396 33.0619 11.7311L33.579 12.0271 34.1421 11.8302 34.9906 11.5362 35.0779 11.6242 34.7812 12.4773 34.5844 13.0397 34.8797 13.5575C35.0716 13.8827 35.2161 14.2336 35.3089 14.5996L35.4578 15.1974 36.0137 15.4645 36.8314 15.8583 36.8314 16.0781 36.0137 16.4719 35.4578 16.7383 35.3089 17.3368C35.1908 17.704 35.0256 18.0543 34.8173 18.3789L34.522 18.8961 34.7189 19.4591 35.0122 20.3077 34.9243 20.3956 34.0764 20.1022 33.5134 19.9054 32.9956 20.2007C32.6707 20.3927 32.32 20.5372 31.9541 20.6299L31.3681 20.7762 31.0984 21.3163 30.7112 22.0907 30.599 22.0907 30.2052 21.2723 29.9381 20.7165 29.3403 20.5669C28.9742 20.4745 28.6233 20.3302 28.2982 20.1383L27.781 19.843 27.218 20.0399 26.3694 20.3333 26.2822 20.2453 26.5755 19.3968 26.7724 18.8337 26.4771 18.3166C26.2854 17.9913 26.1409 17.6404 26.0479 17.2745L25.8989 16.676 25.3431 16.4095 24.5254 16.0158Z" fill="#37698B" fill-rule="nonzero" fill-opacity="1"/><path d="M16.9312 40.0424 16.9312 56.6501 37.6688 56.6501 37.6688 48.7751 40.8844 48.7751C42.9539 48.7714 44.937 47.945 46.3969 46.4782 47.8365 44.979 48.6367 42.9787 48.6281 40.9001L48.6281 36.9626 51.5156 36.9626C53.2219 36.7657 54.7313 34.797 53.1562 32.3689L48.6281 24.4939 48.6281 24.1658C49.0544 13.2745 40.5708 4.09994 29.6795 3.67373 18.7883 3.24753 9.61373 11.7311 9.1875 22.6223 9.16735 23.1366 9.16735 23.6514 9.1875 24.1658 9.16486 30.373 12.0258 36.2388 16.9312 40.0424ZM19.5011 7.56394C28.2489 2.36782 39.5528 5.24705 44.7489 13.9949 46.5625 17.0482 47.455 20.5606 47.3189 24.1093L47.3189 24.8351 47.4935 25.139 52.0216 33.014 52.0393 33.0442 52.0583 33.0737C52.4844 33.588 52.6104 34.2878 52.3904 34.9184 52.2043 35.299 51.8471 35.5675 51.4297 35.6403L47.3156 35.6403 47.3156 40.8903C47.3226 42.6211 46.6608 44.2879 45.4683 45.5424 44.2581 46.7688 42.6073 47.4596 40.8844 47.4607L36.3563 47.4607 36.3563 55.3357 18.2437 55.3357 18.2437 39.3986 17.7345 39.0049C13.1395 35.4544 10.4641 29.9633 10.5 24.1566L10.5 24.1329 10.5 24.1093C10.2336 17.3593 13.6898 11.0068 19.5018 7.56394Z" fill="#37698B" fill-rule="nonzero" fill-opacity="1"/></g></g></g></g></g></svg>